<svg xmlns="http://www.w3.org/2000/svg" width="45" height="44" fill="none"><rect width="44.828" height="43.035" fill="#FFF8EB" rx="16"/><rect width="43.828" height="42.035" x=".5" y=".5" stroke="#FFA900" stroke-opacity=".45" rx="15.5"/><path fill="#FFA900" fill-opacity=".45" d="M18.38 31.61c-.24.4-.53.66-.87.78-.34.14-.68.17-1.02.09-.34-.08-.63-.24-.87-.48a1.89 1.89 0 0 1-.42-.93c-.06-.36.03-.74.27-1.14l10.77-18.66c.24-.42.53-.7.87-.84.34-.14.67-.16.99-.06.34.08.63.25.87.51.24.24.39.54.45.9s-.03.74-.27 1.14L18.38 31.61Zm-3.78-8.16c-1.74 0-3.09-.58-4.05-1.74-.96-1.18-1.44-2.76-1.44-4.74 0-1.34.21-2.49.63-3.45.44-.96 1.07-1.7 1.89-2.22.84-.52 1.83-.78 2.97-.78 1.72 0 3.06.59 4.02 1.77.98 1.16 1.47 2.72 1.47 4.68 0 1.32-.22 2.47-.66 3.45-.42.96-1.04 1.71-1.86 2.25-.82.52-1.81.78-2.97.78Zm0-2.88c.4 0 .73-.12.99-.36.28-.26.49-.65.63-1.17.16-.54.24-1.23.24-2.07 0-1.26-.17-2.16-.51-2.7-.32-.56-.77-.84-1.35-.84-.4 0-.74.12-1.02.36s-.49.62-.63 1.14c-.14.5-.21 1.18-.21 2.04 0 1.28.16 2.2.48 2.76.32.56.78.84 1.38.84Zm15.45 11.76c-1.74 0-3.09-.59-4.05-1.77-.96-1.18-1.44-2.76-1.44-4.74 0-1.32.22-2.46.66-3.42.44-.96 1.07-1.7 1.89-2.22.82-.52 1.8-.78 2.94-.78 1.72 0 3.06.58 4.02 1.74.98 1.16 1.47 2.72 1.47 4.68 0 1.32-.22 2.47-.66 3.45-.42.98-1.04 1.74-1.86 2.28-.82.52-1.81.78-2.97.78Zm0-2.91c.4 0 .73-.12.99-.36.28-.24.49-.63.63-1.17.16-.54.24-1.23.24-2.07 0-1.26-.17-2.16-.51-2.7-.32-.56-.77-.84-1.35-.84-.4 0-.74.12-1.02.36-.26.24-.47.62-.63 1.14-.14.52-.21 1.2-.21 2.04 0 1.3.16 2.23.48 2.79.32.54.78.81 1.38.81Z"/></svg>