<svg xmlns="http://www.w3.org/2000/svg" width="45" height="44" fill="none"><rect width="44.828" height="43.035" y=".069" fill="#FFF8EB" rx="16"/><rect width="43.828" height="42.035" x=".5" y=".569" stroke="#FFA900" stroke-opacity=".45" rx="15.5"/><path stroke="#FFD481" stroke-width="3" d="M21.603 9.817a1 1 0 0 1 1.794 0l3.132 6.346a1 1 0 0 0 .753.547l7.003 1.018a1 1 0 0 1 .554 1.706l-5.067 4.94a1 1 0 0 0-.288.885l1.196 6.975a1 1 0 0 1-1.45 1.054l-6.265-3.293a1 1 0 0 0-.93 0l-6.264 3.293a1 1 0 0 1-1.451-1.054l1.196-6.976a1 1 0 0 0-.288-.885l-5.067-4.94a1 1 0 0 1 .554-1.705l7.003-1.018a1 1 0 0 0 .753-.547l3.132-6.346Z"/></svg>