<svg xmlns="http://www.w3.org/2000/svg" width="45" height="44" fill="none"><rect width="44.828" height="43.035" y=".035" fill="#FFF8EB" rx="16"/><rect width="43.828" height="42.035" x=".5" y=".535" stroke="#FFA900" stroke-opacity=".45" rx="15.5"/><path fill="#FFD481" d="m30.601 21.062-3.063 3.062h-1.62c.134-.378.207-.785.207-1.208a3.632 3.632 0 0 0-3.625-3.625h-5.846l-1.404-.468v-1.948c0-.668-.541-1.209-1.208-1.209H9.208c-.667 0-1.208.541-1.208 1.209V33.79C8 34.46 8.541 35 9.208 35h4.834c.667 0 1.208-.541 1.208-1.209v-1.208h7.197c3.421 0 6.77-.976 9.658-2.812l.206-.166 3.417-3.418a3.631 3.631 0 0 0 0-5.126 3.631 3.631 0 0 0-5.127 0ZM12.833 32.583h-2.416v-14.5h2.416v14.5Zm21.187-8.105L30.697 27.8a15.575 15.575 0 0 1-8.25 2.365H15.25V21.37l.827.276c.123.04.252.062.381.062H22.5c.662 0 1.209.546 1.209 1.208 0 .662-.547 1.208-1.209 1.208-1.61 0-1.61 2.417 0 2.417h5.538c.32 0 .628-.127.854-.354l3.419-3.417a1.215 1.215 0 0 1 1.708 0c.468.468.468 1.24 0 1.708ZM35.791 6h-9.666c-.668 0-1.209.541-1.209 1.208v9.667c0 .667.541 1.208 1.209 1.208h9.666c.668 0 1.209-.54 1.209-1.208V7.208C37 6.541 36.459 6 35.79 6Zm-1.208 9.667h-7.25v-7.25h2.417v2.416a1.208 1.208 0 0 0 2.416 0V8.417h2.417v7.25Z"/></svg>