<svg xmlns="http://www.w3.org/2000/svg" width="71" height="28" fill="none"><path fill="#5F6368" d="M33.58 13.679v8.208H30.96V1.617h6.954a6.327 6.327 0 0 1 4.503 1.755 5.643 5.643 0 0 1 1.407 1.937c.324.737.486 1.536.474 2.34a5.582 5.582 0 0 1-.467 2.356 5.618 5.618 0 0 1-1.414 1.947c-1.216 1.151-2.717 1.726-4.503 1.725H33.58v.002Zm0-9.566v7.075h4.398a3.488 3.488 0 0 0 2.594-1.048 3.454 3.454 0 0 0 1.054-2.477 3.434 3.434 0 0 0-1.054-2.476 3.42 3.42 0 0 0-2.594-1.076H33.58v.002ZM50.339 7.566c1.938 0 3.467.514 4.589 1.543 1.121 1.028 1.682 2.438 1.68 4.23v8.548H54.1v-1.925h-.114c-1.085 1.585-2.53 2.378-4.331 2.378-1.539 0-2.826-.453-3.862-1.359a4.314 4.314 0 0 1-1.554-3.396c0-1.435.547-2.577 1.639-3.424 1.092-.848 2.55-1.272 4.374-1.274 1.557 0 2.84.282 3.847.849v-.596a2.947 2.947 0 0 0-1.083-2.304 3.728 3.728 0 0 0-2.53-.95c-1.465 0-2.624.614-3.478 1.84l-2.31-1.443c1.271-1.812 3.151-2.717 5.64-2.717ZM46.946 17.64a2.067 2.067 0 0 0 .87 1.699c.58.453 1.3.692 2.037.679a4.195 4.195 0 0 0 2.95-1.216c.868-.812 1.302-1.765 1.302-2.858-.817-.647-1.957-.97-3.42-.97-1.065 0-1.953.254-2.664.764-.718.518-1.075 1.147-1.075 1.902ZM71.005 8.018 62.25 28h-2.707l3.25-6.991-5.758-12.99h2.85l4.161 9.962h.057l4.047-9.963h2.855Z"/><path fill="#4285F4" d="M22.985 11.91a13.776 13.776 0 0 0-.202-2.368H11.726v4.485h6.333c-.13.716-.404 1.399-.806 2.007a5.408 5.408 0 0 1-1.536 1.531v2.911h3.78c2.213-2.026 3.488-5.023 3.488-8.566Z"/><path fill="#34A853" d="M11.726 23.289c3.164 0 5.828-1.032 7.771-2.811l-3.78-2.911c-1.052.708-2.407 1.113-3.991 1.113-3.059 0-5.655-2.048-6.583-4.807H1.249v3a11.675 11.675 0 0 0 4.323 4.683 11.786 11.786 0 0 0 6.154 1.733Z"/><path fill="#FBBC04" d="M5.143 13.873a6.931 6.931 0 0 1 0-4.457v-3H1.249a11.579 11.579 0 0 0 0 10.457l3.894-3Z"/><path fill="#EA4335" d="M11.726 4.61a6.39 6.39 0 0 1 4.498 1.746l3.346-3.324A11.31 11.31 0 0 0 11.726 0C9.552 0 7.422.6 5.572 1.733a11.675 11.675 0 0 0-4.323 4.683l3.894 3c.928-2.76 3.524-4.807 6.583-4.807Z"/></svg>