<svg xmlns="http://www.w3.org/2000/svg" width="14" height="14" fill="none"><path fill="#fff" d="M12.824 2.285a2.886 2.886 0 0 0-.737-1.18A2.885 2.885 0 0 0 10.908.37C10.466.22 10.024.074 9.287.074 8.623 0 8.402 0 6.633 0s-1.99 0-2.727.074c-.663 0-1.179.147-1.621.295-.442.147-.81.368-1.18.737-.368.368-.59.737-.736 1.179-.148.442-.295.884-.295 1.621C.074 4.57 0 4.791 0 6.633c0 1.77 0 1.99.074 2.727 0 .664.147 1.18.295 1.622.147.442.368.81.737 1.179.368.369.737.59 1.179.737.442.148.884.295 1.621.295.664 0 .885.074 2.727.074 1.77 0 1.99 0 2.727-.074.664 0 1.18-.147 1.622-.295.442-.147.81-.368 1.179-.737.369-.368.59-.737.737-1.18.148-.441.295-.884.295-1.62 0-.664.074-.885.074-2.728 0-1.769 0-1.99-.074-2.727-.074-.737-.221-1.253-.369-1.621Zm-.884 6.928c0 .663-.147.958-.221 1.18a2.647 2.647 0 0 1-.516.736 2.647 2.647 0 0 1-.737.516c-.221.074-.59.221-1.18.221-.663 0-.884.074-2.653.074-1.769 0-1.99 0-2.653-.074-.663 0-.958-.147-1.18-.22a2.647 2.647 0 0 1-.736-.517 2.647 2.647 0 0 1-.516-.737c-.074-.221-.221-.59-.221-1.18 0-.662-.074-.884-.074-2.652 0-1.77 0-1.99.074-2.654 0-.663.147-.958.22-1.179.148-.295.296-.516.517-.737.22-.221.442-.369.737-.516.22-.074.59-.221 1.179-.221.663 0 .884-.074 2.653-.074 1.77 0 1.99 0 2.654.074.663 0 .958.147 1.179.221.295.147.516.295.737.516.221.221.368.442.516.737.074.221.22.59.22 1.18 0 .663.075.884.075 2.653 0 1.695 0 1.916-.074 2.653ZM6.633 3.169a3.381 3.381 0 0 0-3.39 3.39 3.381 3.381 0 0 0 3.39 3.39 3.381 3.381 0 0 0 3.39-3.39c0-1.842-1.547-3.39-3.39-3.39Zm0 5.528a2.217 2.217 0 0 1-2.21-2.211c0-1.18.957-2.211 2.21-2.211 1.18 0 2.211.958 2.211 2.21a2.217 2.217 0 0 1-2.21 2.212Zm3.538-6.412a.818.818 0 0 0-.81.81c0 .443.368.811.81.811.442 0 .81-.368.81-.81-.073-.443-.441-.811-.81-.811Z"/></svg>