<svg xmlns="http://www.w3.org/2000/svg" width="201" height="55" fill="none"><path fill="red" d="M46.566 7.38 25.537 29.894l-.05.099a68.203 68.203 0 0 1-1.61 3.022 32.052 32.052 0 0 1-1.907 3.021 24.805 24.805 0 0 1-2.278 2.8 15.011 15.011 0 0 1-2.65 2.278c-.959.66-1.999 1.18-3.122 1.56-1.123.38-2.328.57-3.616.57a9.974 9.974 0 0 1-3.468-.619 8.972 8.972 0 0 1-2.997-1.759c-.858-.776-1.552-1.733-2.08-2.873-.529-1.14-.793-2.444-.793-3.913 0-.595.058-1.239.173-1.932.132-.677.306-1.363.52-2.056.232-.694.496-1.363.793-2.006.314-.645.644-1.223.99-1.734 2.28-3.336 5.467-5.788 9.562-7.357a29.425 29.425 0 0 1 5.201-1.436 35.218 35.218 0 0 1 5.722-.545l-1.14 2.774c-3.764.231-7.207 1.123-10.328 2.675-2.543 1.288-4.574 2.956-6.093 5.003-1.52 2.048-2.28 4.112-2.28 6.193 0 .94.15 1.808.447 2.6.313.81.743 1.503 1.288 2.08a6.081 6.081 0 0 0 2.006 1.363c.776.33 1.627.496 2.551.496 1.04 0 2.064-.199 3.072-.595 1.024-.38 2.014-.95 2.972-1.709.958-.743 1.858-1.66 2.7-2.75.858-1.09 1.651-2.336 2.378-3.74.082-.165.206-.404.371-.718.182-.33.438-.867.768-1.61.347-.743.8-1.767 1.362-3.071.562-1.305 1.272-3.03 2.13-5.177.876-2.147 1.924-4.78 3.146-7.901C30.5 9.79 31.944 6.025 33.612 1.633h3.145l-8.99 22.44L48.82 1.807l.074-.173h7.654l-1.14 2.898H51.05L40.052 31.827H36.46L46.566 7.379ZM48.132 32c-.578-.033-1.065-.173-1.46-.421a3.25 3.25 0 0 1-.967-.99 3.893 3.893 0 0 1-.47-1.314c-.083-.495-.1-.99-.05-1.486.066-.512.19-.999.371-1.461.199-.479.463-.9.793-1.263h3.072c-.364.429-.694.933-.991 1.51a6.547 6.547 0 0 0-.62 1.61c-.115.496-.115.917 0 1.264.133.346.446.512.942.495a4.683 4.683 0 0 0 1.486-.99 8.75 8.75 0 0 0 1.313-1.561c.412-.611.792-1.263 1.139-1.957a39.19 39.19 0 0 0 .966-2.08c.297-.71.561-1.388.793-2.032.247-.66.479-1.255.693-1.783H52.12l1.239-2.551h11.765l-3.443 9.239c-.462 1.123-.693 1.783-.693 1.981 0 .925.784 1.387 2.353 1.387h3.765l-1.016 2.477H63.02c-1.206 0-2.023-.041-2.452-.123-.43-.1-.867-.323-1.313-.67-.826-.627-1.239-1.436-1.239-2.427 0-.528.355-1.643 1.065-3.343l2.304-5.97h-3.69l-.967 2.527a38.584 38.584 0 0 1-1.164 2.724 26.951 26.951 0 0 1-1.387 2.65 12.641 12.641 0 0 1-1.66 2.28 8.354 8.354 0 0 1-2.006 1.61 5.141 5.141 0 0 1-2.377.668Zm33.984-3.938c-.595.924-1.28 1.684-2.056 2.278a8.687 8.687 0 0 1-2.428 1.313 9.33 9.33 0 0 1-2.6.52c-.892.05-1.759 0-2.601-.148-1.255-.215-2.23-.644-2.923-1.288-.677-.66-1.048-1.594-1.114-2.8-.066-1.221.19-2.748.767-4.581.578-1.833 1.495-4.054 2.75-6.663l3.22.024-2.527 5.177a5.633 5.633 0 0 1 2.18-1.313 7.22 7.22 0 0 1 2.576-.371c.875.033 1.71.223 2.502.57.809.346 1.461.85 1.957 1.51.511.661.817 1.47.916 2.428.1.958-.107 2.072-.62 3.344Zm-2.65-.892c.462-1.057.594-1.924.396-2.6-.182-.694-.553-1.206-1.115-1.536-.545-.33-1.213-.488-2.006-.471-.793 0-1.56.165-2.304.495a5.547 5.547 0 0 0-1.981 1.437c-.562.627-.892 1.395-.991 2.303-.1.76-.017 1.38.248 1.858.28.479.669.834 1.164 1.065.495.215 1.057.322 1.684.322a5.923 5.923 0 0 0 1.907-.371 6.667 6.667 0 0 0 1.784-.966 5.25 5.25 0 0 0 1.362-1.536h-.148Zm17.61-1.065c-.363.875-.545 1.503-.545 1.882 0 .81.818 1.214 2.453 1.214h3.69l-.991 2.551h-3.22c-1.288 0-2.254-.132-2.898-.396-.644-.264-1.147-.735-1.51-1.412-.265.165-.545.347-.843.545-.594.396-1.023.669-1.288.817-.677.364-1.577.545-2.7.545-1.023 0-1.8-.057-2.328-.173a3.775 3.775 0 0 1-1.436-.644c-1.04-.776-1.56-1.866-1.56-3.27 0-.792.346-2.113 1.04-3.963l2.7-7.059h2.947l-2.948 7.852c-.495 1.304-.743 2.196-.743 2.675 0 1.338.941 2.006 2.824 2.006.561 0 1.082-.123 1.56-.371.48-.248 1.288-.801 2.428-1.66l4.087-10.502h2.873l-3.592 9.363Zm9.016 5.846h-2.848l5.746-14.961h2.799l-2.13 5.647 7.778-.05 2.254-5.448h2.823l-3.666 9.04c-.462 1.123-.693 1.784-.693 1.982 0 .924.784 1.387 2.353 1.387h3.765l-1.016 2.477h-3.071c-1.205 0-2.023-.041-2.452-.124-.429-.1-.867-.322-1.313-.669-.826-.627-1.238-1.436-1.238-2.427 0-.529.355-1.643 1.065-3.344l.297-.718h-7.679l-.52 1.436-2.254 5.772Zm33.092.099h-6.861c-2.262 0-3.872-.339-4.83-1.016-.677-.462-1.222-1.106-1.635-1.932a6.1 6.1 0 0 1-.594-2.625c0-1.04.272-2.205.817-3.493.561-1.288 1.263-2.394 2.105-3.319a10.363 10.363 0 0 1 3.121-2.304c1.189-.561 2.362-.842 3.518-.842 1.403 0 2.559.388 3.467 1.164.908.776 1.363 1.767 1.363 2.973 0 .891-.289 1.775-.867 2.65h-3.072c.76-.99 1.14-1.792 1.14-2.403 0-.528-.207-.966-.62-1.312-.412-.364-.924-.545-1.535-.545-1.123 0-2.312.503-3.567 1.51a8.78 8.78 0 0 0-2.229 2.676c-.562 1.04-.842 2.03-.842 2.972 0 .611.148 1.189.445 1.734.314.528.719.925 1.214 1.189.578.314 1.651.47 3.22.47h7.233l-.991 2.453Zm4.013-.075h-2.874l6.539-15.01h2.923l-6.588 15.01Zm6.935-7.58 4.756 7.778h-3.171l-4.954-8.223 8.892-6.91h4.558l-10.081 7.356Zm22.044 1.71c-.363.875-.544 1.503-.544 1.882 0 .81.817 1.214 2.452 1.214h3.69l-.99 2.551h-3.22c-1.288 0-2.254-.132-2.898-.396-.644-.264-1.148-.735-1.511-1.412-.265.165-.545.347-.842.545-.595.396-1.024.669-1.288.817-.678.364-1.577.545-2.7.545-1.024 0-1.8-.057-2.329-.173a3.773 3.773 0 0 1-1.436-.644c-1.041-.776-1.561-1.866-1.561-3.27 0-.792.347-2.113 1.041-3.963l2.699-7.059h2.948l-2.948 7.852c-.495 1.304-.743 2.196-.743 2.675 0 1.338.942 2.006 2.824 2.006.561 0 1.082-.123 1.561-.371.478-.248 1.288-.801 2.427-1.66l4.087-10.502h2.873l-3.592 9.363Zm19.964 0c-.363.875-.544 1.503-.544 1.882 0 .81.817 1.214 2.452 1.214h3.69l-.99 2.551h-3.22c-1.288 0-2.254-.132-2.898-.396-.644-.264-1.148-.735-1.511-1.412-.265.165-.545.347-.843.545-.594.396-1.023.669-1.288.817-.677.364-1.577.545-2.699.545-1.024 0-1.8-.057-2.329-.173a3.773 3.773 0 0 1-1.436-.644c-1.041-.776-1.561-1.866-1.561-3.27 0-.792.347-2.113 1.041-3.963l2.699-7.059h2.948l-2.948 7.852c-.495 1.304-.743 2.196-.743 2.675 0 1.338.942 2.006 2.824 2.006.561 0 1.082-.123 1.56-.371.479-.248 1.288-.801 2.428-1.66l4.087-10.502h2.873l-3.592 9.363Zm3.369-17.116c-.347 1.239-.908 2.238-1.684 2.997-.76.744-1.825 1.115-3.195 1.115-1.817 0-2.956-.157-3.419-.47a2.58 2.58 0 0 1-.545-.496 5.608 5.608 0 0 1-.396-.669 4.505 4.505 0 0 1-.223-.718 3.483 3.483 0 0 1-.074-.669c0-.297.082-.66.248-1.09l1.783-.173a1.113 1.113 0 0 0-.025.223v.124c0 .512.215.925.644 1.238.446.297 1.049.446 1.808.446 1.553 0 2.634-.677 3.245-2.03l1.833.172Z"/><rect width="76" height="18" x="120" y="36" fill="red" rx="9"/><path fill="#fff" d="M131.72 49.16c-.811 0-1.515-.165-2.112-.496a3.474 3.474 0 0 1-1.392-1.408c-.331-.619-.496-1.344-.496-2.176 0-.832.165-1.552.496-2.16a3.474 3.474 0 0 1 1.392-1.408c.597-.33 1.301-.496 2.112-.496.811 0 1.515.165 2.112.496.597.33 1.061.8 1.392 1.408.331.608.496 1.328.496 2.16 0 .832-.165 1.557-.496 2.176a3.474 3.474 0 0 1-1.392 1.408c-.597.33-1.301.496-2.112.496Zm0-1.52c.597 0 1.077-.213 1.44-.64.363-.437.544-1.077.544-1.92 0-.853-.181-1.488-.544-1.904-.363-.427-.843-.64-1.44-.64s-1.077.213-1.44.64c-.363.416-.544 1.05-.544 1.904 0 .843.181 1.483.544 1.92.363.427.843.64 1.44.64Zm6.862 1.488c-.672 0-1.008-.341-1.008-1.024v-6.048c0-.672.336-1.008 1.008-1.008.661 0 .992.336.992 1.008V44.2h3.456v-2.144c0-.672.33-1.008.992-1.008.672 0 1.008.336 1.008 1.008v6.048c0 .683-.336 1.024-1.008 1.024-.662 0-.992-.341-.992-1.024v-2.336h-3.456v2.336c0 .683-.331 1.024-.992 1.024Zm14.998 0c-.661 0-.992-.341-.992-1.024v-5.36h-2.464v.912c0 1.483-.187 2.656-.56 3.52-.363.864-.96 1.472-1.792 1.824-.288.117-.539.133-.752.048a.924.924 0 0 1-.48-.416.945.945 0 0 1-.064-.64c.053-.224.213-.41.48-.56.533-.31.885-.768 1.056-1.376.181-.608.272-1.43.272-2.464v-1.296c0-.747.373-1.12 1.12-1.12h4.064c.747 0 1.12.373 1.12 1.12v5.808c0 .683-.336 1.024-1.008 1.024Zm5.867.032a3.491 3.491 0 0 1-1.52-.32 2.75 2.75 0 0 1-1.04-.896 2.245 2.245 0 0 1-.368-1.264c0-.576.149-1.03.448-1.36.298-.341.784-.587 1.456-.736.672-.15 1.573-.224 2.704-.224h.56v-.336c0-.533-.118-.917-.352-1.152-.235-.235-.63-.352-1.184-.352-.31 0-.646.037-1.008.112a5.362 5.362 0 0 0-1.12.384c-.256.117-.47.133-.64.048a.748.748 0 0 1-.352-.432.983.983 0 0 1 .032-.608c.085-.203.25-.352.496-.448.49-.203.96-.347 1.408-.432a6.87 6.87 0 0 1 1.248-.128c1.141 0 1.989.267 2.544.8.554.523.832 1.339.832 2.448v3.84c0 .683-.31 1.024-.928 1.024-.63 0-.944-.341-.944-1.024v-.352c-.182.437-.47.784-.864 1.04-.395.245-.864.368-1.408.368Zm.416-1.376c.522 0 .954-.181 1.296-.544.352-.363.528-.821.528-1.376v-.352h-.544c-1.003 0-1.702.08-2.096.24-.384.15-.576.427-.576.832 0 .352.122.64.368.864.245.224.586.336 1.024.336Zm6.889 1.344c-.619 0-.928-.357-.928-1.072v-6.048c0-.64.304-.96.912-.96.597 0 .896.32.896.96v4.384l3.536-4.704c.117-.15.261-.293.432-.432.17-.139.405-.208.704-.208.608 0 .912.352.912 1.056v6.064c0 .64-.299.96-.896.96-.608 0-.912-.32-.912-.96v-4.384l-3.536 4.704c-.107.15-.246.293-.416.432-.16.139-.395.208-.704.208Zm2.768-8.944c-.662 0-1.238-.15-1.728-.448a2.5 2.5 0 0 1-1.04-1.296c-.15-.405-.048-.667.304-.784.309-.107.56.027.752.4.352.683.922 1.024 1.712 1.024.789 0 1.36-.341 1.712-1.024.192-.373.442-.507.752-.4.16.053.266.15.32.288.064.128.048.293-.048.496-.267.555-.624.987-1.072 1.296-.448.299-1.003.448-1.664.448Zm6.968 8.944c-.672 0-1.008-.341-1.008-1.024v-6.048c0-.672.336-1.008 1.008-1.008.661 0 .992.336.992 1.008V44.2h3.456v-2.144c0-.672.33-1.008.992-1.008.672 0 1.008.336 1.008 1.008v6.048c0 .683-.336 1.024-1.008 1.024-.662 0-.992-.341-.992-1.024v-2.336h-3.456v2.336c0 .683-.331 1.024-.992 1.024Z"/><circle cx="189" cy="45" r="3" fill="#FFA900"/></svg>