<svg xmlns="http://www.w3.org/2000/svg" width="15" height="15" fill="none"><path fill="#fff" d="M13.682 2.227H1.318A1.32 1.32 0 0 0 0 3.545v7.91a1.32 1.32 0 0 0 1.318 1.318h12.364A1.32 1.32 0 0 0 15 11.455v-7.91a1.32 1.32 0 0 0-1.318-1.318Zm-.185.878L8.432 8.144a1.31 1.31 0 0 1-.932.386 1.31 1.31 0 0 1-.933-.387L1.503 3.105h11.994ZM.879 11.276V3.724l3.798 3.778-3.798 3.774Zm.625.619L5.3 8.122l.646.643c.415.415.967.644 1.554.644.587 0 1.139-.229 1.553-.643l.647-.644 3.796 3.773H1.504Zm12.617-.619-3.798-3.774 3.798-3.778v7.552Z"/></svg>