<svg xmlns="http://www.w3.org/2000/svg" width="117" height="27" fill="none"><path fill="#fff" fill-opacity=".6" d="M53 16.355V12.7c0-1.38-.879-2.308-2.295-2.32a2.259 2.259 0 0 0-2.05 1.038 2.142 2.142 0 0 0-1.927-1.039 1.932 1.932 0 0 0-1.706.868v-.731h-1.27v5.84h1.282V13.12c0-1.014.56-1.55 1.428-1.55.868 0 1.27.549 1.27 1.538v3.246h1.274v-3.234c0-1.014.585-1.55 1.429-1.55.843 0 1.282.549 1.282 1.538v3.246H53Zm18.97-5.834h-2.075V8.75h-1.282v1.77H67.43v1.16h1.184v2.659c0 1.355.524 2.162 2.025 2.162.561.001 1.111-.155 1.587-.451l-.365-1.087c-.341.203-.728.316-1.124.329-.634 0-.843-.39-.843-.975V11.68h2.074l.002-1.16Zm10.827-.146a1.72 1.72 0 0 0-1.537.855v-.71h-1.258v5.835h1.27v-3.27c0-.975.414-1.502 1.245-1.502a2.07 2.07 0 0 1 .795.147l.39-1.197a2.711 2.711 0 0 0-.905-.158Zm-16.37.609a4.363 4.363 0 0 0-2.381-.61c-1.477 0-2.437.71-2.437 1.867 0 .953.707 1.538 2.013 1.721l.597.085c.695.098 1.026.28 1.026.61 0 .45-.463.709-1.33.709a3.11 3.11 0 0 1-1.95-.61l-.578.988c.74.517 1.626.782 2.527.758 1.684 0 2.662-.795 2.662-1.904 0-1.026-.77-1.562-2.038-1.745l-.597-.085c-.548-.073-.99-.183-.99-.573 0-.426.415-.682 1.112-.682.639.01 1.264.181 1.818.5l.546-1.03Zm34.003-.61a1.721 1.721 0 0 0-1.538.856v-.71h-1.257v5.835h1.27v-3.27c0-.975.414-1.502 1.245-1.502.272-.004.542.046.794.147l.39-1.197a2.71 2.71 0 0 0-.904-.158Zm-16.35 3.064c0 1.77 1.233 3.063 3.112 3.063.762.038 1.51-.21 2.098-.697l-.61-1.026a2.564 2.564 0 0 1-1.525.524c-1.014 0-1.757-.745-1.757-1.866s.746-1.855 1.757-1.867c.552.006 1.087.19 1.526.524l.609-1.026a3.056 3.056 0 0 0-2.098-.697c-1.88 0-3.113 1.294-3.113 3.063v.005Zm11.888 0v-2.925h-1.27v.71a2.213 2.213 0 0 0-1.842-.856c-1.636 0-2.925 1.282-2.925 3.064 0 1.781 1.282 3.063 2.925 3.063a2.212 2.212 0 0 0 1.842-.855v.707h1.27v-2.908Zm-4.724 0c0-1.026.67-1.867 1.77-1.867 1.05 0 1.757.807 1.757 1.867s-.707 1.867-1.757 1.867c-1.1 0-1.77-.843-1.77-1.867Zm-15.32-3.063c-1.705 0-2.904 1.245-2.904 3.063 0 1.855 1.245 3.063 2.99 3.063.871.031 1.723-.26 2.393-.818l-.621-.941a2.78 2.78 0 0 1-1.706.61c-.82 0-1.562-.379-1.745-1.429h4.333c.012-.158.024-.317.024-.487 0-1.819-1.135-3.064-2.77-3.064l.007.003ZM75.9 11.51c.82 0 1.343.512 1.477 1.416h-3.024c.134-.843.646-1.416 1.55-1.416H75.9Zm31.842 1.928V8.176h-1.27v3.052a2.221 2.221 0 0 0-1.843-.856c-1.635 0-2.924 1.282-2.924 3.064 0 1.781 1.282 3.063 2.924 3.063a2.218 2.218 0 0 0 1.843-.855v.706h1.27v-2.912Zm1.484 2.379a.371.371 0 0 1 .265.11.374.374 0 0 1 .111.26.374.374 0 0 1-.376.37.379.379 0 0 1-.351-.226.356.356 0 0 1 0-.288.38.38 0 0 1 .356-.227h-.005Zm0 .658a.278.278 0 0 0 .202-.083.291.291 0 0 0 0-.41.285.285 0 0 0-.317-.06.287.287 0 0 0-.17.21.287.287 0 0 0 .17.32.29.29 0 0 0 .12.023h-.005Zm.022-.463a.156.156 0 0 1 .102.029c.012.01.022.022.028.036a.113.113 0 0 1 .002.083.09.09 0 0 1-.023.032.134.134 0 0 1-.08.034l.112.13h-.088l-.104-.13h-.035v.13h-.073v-.342l.159-.002Zm-.086.063v.093h.086a.082.082 0 0 0 .046 0 .036.036 0 0 0 .013-.015.042.042 0 0 0 .004-.02.042.042 0 0 0-.004-.019.036.036 0 0 0-.013-.015.082.082 0 0 0-.046 0l-.086-.024Zm-6.139-2.637c0-1.026.67-1.867 1.77-1.867 1.05 0 1.757.807 1.757 1.867s-.707 1.867-1.757 1.867c-1.1 0-1.77-.843-1.77-1.867Zm-42.87 0v-2.925h-1.269v.71a2.214 2.214 0 0 0-1.835-.848c-1.635 0-2.925 1.281-2.925 3.063 0 1.782 1.282 3.063 2.925 3.063a2.212 2.212 0 0 0 1.843-.855v.707h1.27l-.008-2.915Zm-4.722 0c0-1.026.67-1.867 1.77-1.867 1.05 0 1.756.807 1.756 1.867s-.706 1.867-1.757 1.867c-1.1 0-1.77-.84-1.77-1.867ZM27.551 6.502h-7.677v13.797h7.677V6.502Z"/><path fill="#fff" d="M20.361 13.405a8.76 8.76 0 0 1 3.351-6.897 8.774 8.774 0 1 0 0 13.797 8.758 8.758 0 0 1-3.351-6.9Z"/><path fill="#F2BDBD" d="M37.908 13.404A8.774 8.774 0 0 1 23.712 20.3a8.774 8.774 0 0 0 0-13.797 8.774 8.774 0 0 1 14.196 6.9Z"/><path fill="#fff" fill-opacity=".6" d="M37.066 18.837v-.283h.114v-.056h-.285v.058h.115v.283l.056-.002Zm.563 0v-.341h-.076l-.102.243-.103-.243h-.09v.34h.051v-.255l.095.222h.066l.095-.222v.258l.064-.002Z"/></svg>