<svg xmlns="http://www.w3.org/2000/svg" width="26" height="26" fill="none"><g fill="#fff" clip-path="url(#a)"><path d="M20.06 16.073c-.506-.528-1.117-.81-1.765-.81-.643 0-1.26.277-1.787.804l-1.65 1.646c-.136-.073-.272-.141-.403-.21-.188-.093-.365-.182-.517-.276-1.546-.982-2.951-2.262-4.299-3.918-.653-.825-1.092-1.52-1.41-2.225.428-.392.825-.8 1.212-1.191.146-.146.292-.298.438-.444 1.097-1.097 1.097-2.518 0-3.615L8.453 4.408c-.162-.162-.329-.329-.485-.496a24.661 24.661 0 0 0-.982-.972c-.507-.501-1.113-.768-1.75-.768-.638 0-1.254.267-1.776.768l-.01.01-1.777 1.792A3.822 3.822 0 0 0 .54 7.172c-.126 1.525.323 2.946.668 3.875.846 2.283 2.11 4.399 3.996 6.666 2.288 2.732 5.041 4.889 8.186 6.41 1.201.569 2.805 1.242 4.596 1.357.11.005.225.01.33.01 1.206 0 2.22-.433 3.014-1.295.005-.01.015-.015.02-.026.272-.329.586-.627.915-.945.224-.215.454-.44.679-.674.517-.538.789-1.165.789-1.808 0-.647-.277-1.269-.805-1.791l-2.868-2.878Zm1.87 5.5c-.005 0-.005.005 0 0-.203.22-.412.418-.637.637-.34.324-.684.664-1.008 1.045-.528.564-1.15.83-1.964.83-.079 0-.162 0-.24-.005-1.552-.099-2.994-.705-4.075-1.222-2.957-1.431-5.553-3.463-7.71-6.038-1.781-2.147-2.972-4.132-3.761-6.264-.486-1.3-.663-2.314-.585-3.27a2.398 2.398 0 0 1 .72-1.551l1.782-1.781c.256-.24.528-.371.794-.371.33 0 .596.198.763.365l.015.016c.319.298.622.606.94.935.163.167.33.334.497.507l1.426 1.426c.554.554.554 1.065 0 1.62-.152.15-.298.302-.45.448-.438.45-.856.868-1.31 1.275-.01.01-.021.016-.027.026-.449.45-.365.888-.271 1.186l.016.047c.37.898.893 1.745 1.687 2.753l.005.005c1.442 1.776 2.962 3.16 4.639 4.22.214.137.433.246.642.35.188.095.366.183.517.277.021.011.042.027.063.037.178.089.345.13.517.13.434 0 .705-.271.794-.36l1.787-1.786c.177-.178.46-.392.788-.392.324 0 .59.204.753.381l.01.01 2.878 2.879c.538.533.538 1.081.005 1.635ZM13.875 6.628a6.624 6.624 0 0 1 3.605 1.87 6.659 6.659 0 0 1 1.87 3.605.7.7 0 0 0 .694.585c.042 0 .079-.005.12-.01a.706.706 0 0 0 .58-.816 8.057 8.057 0 0 0-2.261-4.361 8.057 8.057 0 0 0-4.362-2.262.709.709 0 0 0-.815.575.698.698 0 0 0 .57.814ZM25.221 11.659a13.254 13.254 0 0 0-3.724-7.183A13.254 13.254 0 0 0 14.314.752a.703.703 0 0 0-.81.575.709.709 0 0 0 .58.814 11.869 11.869 0 0 1 6.42 3.328 11.834 11.834 0 0 1 3.328 6.42.7.7 0 0 0 .694.585c.042 0 .079-.005.12-.01a.692.692 0 0 0 .575-.805Z"/></g><defs><clipPath id="a"><path fill="#fff" d="M.5.742h24.75v24.75H.5z"/></clipPath></defs></svg>