<svg xmlns="http://www.w3.org/2000/svg" width="38" height="12" fill="none"><path fill="#fff" fill-opacity=".6" d="m15.098.499-1.916 11.246h3.064L18.164.498h-3.066ZM10.611.512 7.61 8.182l-.32-1.159c-.592-1.395-2.273-3.399-4.246-4.662l2.745 9.379 3.243-.006L13.858.51l-3.247.002Z"/><path fill="#fff" fill-opacity=".6" d="M6.126 1.316C5.948.631 5.432.427 4.791.403H.04L0 .627c3.698.897 6.145 3.058 7.16 5.657L6.126 1.316ZM24.376 2.655a5.658 5.658 0 0 1 2.293.43l.277.13.415-2.437a7.91 7.91 0 0 0-2.746-.472c-3.028 0-5.163 1.525-5.18 3.711-.02 1.616 1.521 2.517 2.685 3.056 1.194.551 1.594.902 1.589 1.395-.01.753-.953 1.098-1.833 1.098-1.227 0-1.88-.17-2.886-.589l-.395-.18-.43 2.517c.716.315 2.04.585 3.414.6 3.221 0 5.315-1.508 5.337-3.843.014-1.278-.804-2.253-2.575-3.053-1.072-.522-1.728-.869-1.722-1.396 0-.467.557-.967 1.757-.967ZM35.225.512h-2.368c-.735 0-1.282.2-1.606.933l-4.55 10.306h3.218s.525-1.386.644-1.69l3.925.005c.092.393.374 1.685.374 1.685h2.843L35.225.51Zm-3.78 7.248c.253-.646 1.221-3.143 1.221-3.143-.016.03.25-.65.409-1.074l.206.97.71 3.247h-2.546Z"/></svg>