<svg aria-hidden="true" style="position: absolute; width: 0; height: 0; overflow: hidden;" version="1.1" xmlns="http://www.w3.org/2000/svg" xmlns:xlink="http://www.w3.org/1999/xlink">
<defs>
<symbol id="compas" viewBox="0 0 32 32">
<path d="M30.158 0.103l-29.328 12c-1.234 0.503-1.047 2.306 0.265 2.544l13.758 2.501 2.501 13.758c0.238 1.312 2.041 1.499 2.546 0.265l11.998-29.328c0.062-0.149 0.099-0.322 0.099-0.503 0-0.736-0.597-1.333-1.333-1.333-0.181 0-0.354 0.036-0.512 0.102l0.009-0.003z"></path>
</symbol>
<symbol id="arrow-prev" viewBox="0 0 21 32">
<path d="M16.040 0.773l-13.272 13.272c-0.478 0.48-0.773 1.141-0.773 1.872s0.295 1.392 0.773 1.872l13.272 13.272c0.463 0.402 1.071 0.648 1.737 0.648 1.465 0 2.653-1.188 2.653-2.653 0-0.665-0.245-1.273-0.649-1.739l0.003 0.003-11.387-11.389 11.387-11.413c0.478-0.48 0.773-1.141 0.773-1.872s-0.295-1.392-0.773-1.872l0 0c-0.48-0.478-1.141-0.773-1.872-0.773s-1.392 0.295-1.872 0.773l0-0z"></path>
</symbol>
<symbol id="arrow-next" viewBox="0 0 19 32">
<path d="M4.517 0.773l13.269 13.272c0.478 0.48 0.773 1.141 0.773 1.872s-0.295 1.392-0.773 1.872l-13.272 13.272c-0.461 0.397-1.066 0.639-1.727 0.639-1.465 0-2.653-1.188-2.653-2.653 0-0.661 0.242-1.266 0.642-1.73l-0.003 0.003 11.387-11.389-11.387-11.413c-0.478-0.48-0.773-1.141-0.773-1.872s0.295-1.392 0.773-1.872l-0 0c0.48-0.478 1.141-0.773 1.872-0.773s1.392 0.295 1.872 0.773l-0-0z"></path>
</symbol>
</defs>
</svg>
