<svg xmlns="http://www.w3.org/2000/svg" aria-hidden="true" style="position:absolute;width:0;height:0;overflow:hidden"><defs><symbol id="arrow-next" viewBox="0 0 19 32"><path d="M4.517.772 17.79 14.045a2.653 2.653 0 0 1 0 3.743L4.517 31.061a2.653 2.653 0 0 1-3.743-3.743l11.388-11.389L.773 4.514a2.653 2.653 0 0 1 0-3.743 2.653 2.653 0 0 1 3.743 0z"/></symbol><symbol id="arrow-btn" viewBox="0 0 32 32"><path d="m19.414 27.414 10-10a2 2 0 0 0 0-2.828l-10-10a2 2 0 1 0-2.828 2.828L23.172 14H4a2 2 0 1 0 0 4h19.172l-6.586 6.586c-.39.39-.586.902-.586 1.414s.195 1.024.586 1.414a2 2 0 0 0 2.828 0z"/></symbol></defs></svg>