<svg xmlns="http://www.w3.org/2000/svg" aria-hidden="true" style="position:absolute;width:0;height:0;overflow:hidden"><defs><symbol id="arrow-next" viewBox="0 0 19 32"><path d="M4.517.772 17.79 14.045a2.653 2.653 0 0 1 0 3.743L4.517 31.061a2.653 2.653 0 0 1-3.743-3.743l11.388-11.389L.773 4.514a2.653 2.653 0 0 1 0-3.743 2.653 2.653 0 0 1 3.743 0z"/></symbol><symbol id="arrow-btn" viewBox="0 0 32 32"><path d="m19.414 27.414 10-10a2 2 0 0 0 0-2.828l-10-10a2 2 0 1 0-2.828 2.828L23.172 14H4a2 2 0 1 0 0 4h19.172l-6.586 6.586c-.39.39-.586.902-.586 1.414s.195 1.024.586 1.414a2 2 0 0 0 2.828 0z"/></symbol><symbol id="arrow-prev" viewBox="0 0 21 32"><path d="M16.040 0.773l-13.272 13.272c-0.478 0.48-0.773 1.141-0.773 1.872s0.295 1.392 0.773 1.872l13.272 13.272c0.463 0.402 1.071 0.648 1.737 0.648 1.465 0 2.653-1.188 2.653-2.653 0-0.665-0.245-1.273-0.649-1.739l0.003 0.003-11.387-11.389 11.387-11.413c0.478-0.48 0.773-1.141 0.773-1.872s-0.295-1.392-0.773-1.872l0 0c-0.48-0.478-1.141-0.773-1.872-0.773s-1.392 0.295-1.872 0.773l0-0z"></symbol></defs></svg>
