<svg xmlns="http://www.w3.org/2000/svg" aria-hidden="true" style="position:absolute;width:0;height:0;overflow:hidden"><defs><symbol id="see-all" viewBox="0 0 19 32"><path d="M4.515.773 17.79 14.045c.478.48.773 1.141.773 1.872s-.295 1.392-.773 1.872L4.515 31.064a2.653 2.653 0 0 1-3.739-3.747l-.003.003L12.16 15.933.773 4.512c-.476-.479-.77-1.14-.77-1.869s.294-1.39.77-1.869C1.253.297 1.914.002 2.644.002s1.391.295 1.871.772z"/></symbol><symbol id="arrow-next" viewBox="0 0 19 32"><path d="M4.517 0.772l13.273 13.273c1.030 1.035 1.030 2.708 0 3.743l-13.273 13.273c-0.993 0.852-2.461 0.852-3.454 0-1.112-0.953-1.242-2.631-0.289-3.743l11.388-11.389-11.389-11.415c-1.030-1.035-1.030-2.708 0-3.743 1.035-1.030 2.708-1.030 3.743 0z"></path></symbol></defs></svg>