<svg xmlns="http://www.w3.org/2000/svg" aria-hidden="true" style="position:absolute;width:0;height:0;overflow:hidden"><defs><symbol id="geolocation" viewBox="0 0 32 32"><path fill="#fff" d="m30.158.103-29.328 12c-1.234.503-1.047 2.306.265 2.544l13.758 2.501 2.501 13.758c.238 1.312 2.041 1.499 2.546.265L31.898 1.843A1.333 1.333 0 0 0 30.152.109l.009-.003z" style="fill:var(--color1, #fff)"/></symbol><symbol id="aroow-next" viewBox="0 0 19 32"><path d="m4.517.773 13.269 13.272c.478.48.773 1.141.773 1.872s-.295 1.392-.773 1.872L4.514 31.061a2.653 2.653 0 0 1-3.738-3.744l-.003.003L12.16 15.931.773 4.518C.295 4.038 0 3.377 0 2.646S.295 1.254.773.774C1.253.296 1.914.001 2.645.001s1.392.295 1.872.773z"/></symbol></defs></svg>