<svg xmlns="http://www.w3.org/2000/svg" xml:space="preserve" width="800" height="800" viewBox="0 0 260.575 260.575"><path d="M235.609 260.575c6.992 0 12.675-5.687 12.675-12.674V90.537c0-6.99-5.688-12.677-12.675-12.677H210.9c-.619-2.003-1.655-3.859-3.179-5.377l-68.675-68.68c-5.07-5.07-13.317-5.07-18.382 0L51.99 72.472c-1.523 1.523-2.567 3.379-3.182 5.382h-23.84c-6.995 0-12.677 5.688-12.677 12.678v157.363c0 6.987 5.687 12.675 12.677 12.675H235.61v.005zM129.853 16.673 191.04 77.86H68.666l61.187-61.187zM27.89 93.459h204.799v151.517H27.89V93.459z"/><path d="M135.535 131.052h-4.61c-4.073 0-7.983 3.112-8.896 7.079l-7.795 33.839-7.01-33.758c-.833-4.017-4.695-7.165-8.797-7.165h-5.149c-4.113 0-7.955 3.158-8.749 7.2l-6.464 32.931-7.622-33.053c-.917-3.971-4.827-7.078-8.904-7.078h-5.246c-2.188 0-4.128.908-5.329 2.488-1.196 1.589-1.546 3.707-.952 5.819l17.158 60.509c1.097 3.869 5.096 6.896 9.123 6.896h3.286c4.108 0 7.97-3.144 8.792-7.166l7.409-35.865 7.411 35.865c.82 4.022 4.685 7.171 8.793 7.171h3.712c4.019 0 8.023-3.032 9.11-6.906l17.016-60.504c.6-2.112.249-4.23-.954-5.819-1.202-1.58-3.141-2.483-5.333-2.483zM178.594 147.494c4.403 0 7.577 1.203 9.694 3.682.645.752 1.249 1.762 1.803 2.991 1.427 3.229 5.21 5.57 8.988 5.57h4.336c2.331 0 4.505-1.057 5.825-2.818 1.203-1.615 1.563-3.671.979-5.632-.863-2.92-2.306-5.875-4.296-8.795-5.921-8.48-15.305-12.781-27.889-12.781-9.455 0-17.377 3.194-23.531 9.486-6.992 7.145-10.541 17.33-10.541 30.284 0 11.979 3.117 21.603 9.262 28.604 6.23 7.059 14.848 10.639 25.613 10.639 8.754 0 16.066-2.661 21.724-7.912 4.321-4.012 7.424-8.998 9.212-14.832.629-2.021.305-4.113-.899-5.733-1.265-1.716-3.306-2.701-5.601-2.701h-4.24c-3.793 0-7.592 2.473-9.019 5.87-.563 1.36-1.193 2.463-1.874 3.311-2.143 2.737-5.261 4.067-9.516 4.067-4.145 0-7.465-1.614-10.166-4.94-2.799-3.453-4.221-8.882-4.221-16.139 0-7.332 1.377-12.999 4.073-16.854 2.535-3.61 5.897-5.367 10.284-5.367z"/></svg>